<svg width="96" height="96" viewBox="0 0 96 96" fill="none" xmlns="http://www.w3.org/2000/svg">
  <defs><linearGradient id="bg" x1="18" y1="5" x2="79" y2="92" gradientUnits="userSpaceOnUse"><stop stop-color="#6B231E"/><stop offset="1" stop-color="#21161A"/></linearGradient></defs>
  <rect width="96" height="96" rx="24" fill="url(#bg)"/>
  <path d="M9 69c11-11 15-24 14-38 7 9 10 8 16-5 2 13 8 15 19 5-3 13 1 21 14 25-9 2-13 8-11 19L9 69Z" fill="#F07834" opacity=".3"/>
  <path d="M20 88c3-17 13-27 28-27 16 0 26 10 29 27H20Z" fill="#76292A"/>
  <path d="M30 47c0-18 8-29 19-29 13 0 21 11 18 32l-7 17H36l-6-20Z" fill="#E8B584"/>
  <path d="M27 49c-1-25 8-38 24-38 15 0 23 15 19 40-4-8-7-17-8-27-7 12-18 18-35 25Z" fill="#E9E4D8"/>
  <path d="M64 23c8 11 10 24 5 39M32 27c-6 10-7 23-3 35" stroke="#C8C4BB" stroke-width="5" stroke-linecap="round"/>
  <path d="M35 47c4-3 8-3 12 0M53 47c4-3 8-3 11 0" stroke="#613B39" stroke-width="2.5" stroke-linecap="round"/>
  <circle cx="41" cy="49" r="2.5" fill="#A9232A"/><circle cx="59" cy="49" r="2.5" fill="#A9232A"/>
  <path d="M45 58c3 2 6 2 9 0" stroke="#A35D55" stroke-width="2" stroke-linecap="round"/>
  <path d="m34 65 14 7 14-7 8 23H27l7-23Z" fill="#F2EEE4"/>
  <path d="M48 72v16M41 72l-4 16M55 72l4 16" stroke="#C83636" stroke-width="2"/>
  <path d="m69 18 8 7-8 7-8-7 8-7Z" fill="#E44338"/>
</svg>
