<svg width="96" height="96" viewBox="0 0 96 96" fill="none" xmlns="http://www.w3.org/2000/svg">
  <defs><linearGradient id="bg" x1="16" y1="8" x2="82" y2="91" gradientUnits="userSpaceOnUse"><stop stop-color="#332543"/><stop offset="1" stop-color="#10131F"/></linearGradient></defs>
  <rect width="96" height="96" rx="24" fill="url(#bg)"/>
  <circle cx="48" cy="49" r="34" fill="#F4A64F" opacity=".16"/>
  <path d="M22 88c2-18 12-27 26-27s24 9 26 27H22Z" fill="#2A2239"/>
  <path d="M30 47c0-19 8-29 19-29 13 0 21 11 18 32l-7 17H36l-6-20Z" fill="#D9B07A"/>
  <path d="M28 48c-1-20 7-35 22-35 14 0 24 13 20 36-5-5-9-12-10-20-6 9-15 14-32 19Z" fill="#D8C15A"/>
  <path d="M34 25 23 18l5 15M62 24l12-7-4 16" stroke="#E8D873" stroke-width="5" stroke-linecap="round"/>
  <path d="M35 47c4-3 8-3 12 0M52 47c4-3 8-3 11 0" stroke="#5A3A39" stroke-width="2.5" stroke-linecap="round"/>
  <circle cx="41" cy="49" r="2.5" fill="#B52D45"/><circle cx="58" cy="49" r="2.5" fill="#B52D45"/>
  <path d="M45 58c3 2 6 2 9 0" stroke="#A25B52" stroke-width="2" stroke-linecap="round"/>
  <path d="M36 65 48 72 60 65l8 23H28l8-23Z" fill="#242030"/>
  <path d="m42 68 6 5 6-5-6 17-6-17Z" fill="#D94A58"/>
</svg>
